<svg width="56" height="57" viewBox="0 0 56 57" fill="none" xmlns="http://www.w3.org/2000/svg">
<g clip-path="url(#clip0_6_182)" filter="url(#filter0_d_6_182)">
<path d="M4 24.2917V48.2917H52V0.291748H4V24.2917Z" fill="#007ACC"/>
<path d="M14.6147 24.4511L14.5995 26.4167H20.847V44.1692H25.266V26.4167H31.5137V24.4892C31.5137 23.4223 31.4909 22.5309 31.4605 22.5081C31.4376 22.4777 27.6355 22.4623 23.0262 22.47L14.6374 22.4929L14.6147 24.4509V24.4511ZM42.7313 22.437C43.9502 22.7417 44.8799 23.2826 45.7332 24.1665C46.1751 24.639 46.8302 25.4998 46.8837 25.7055C46.8987 25.7664 44.8112 27.1684 43.5465 27.9532C43.5008 27.9836 43.3178 27.7856 43.1121 27.4807C42.495 26.5817 41.8474 26.1932 40.8569 26.1246C39.4019 26.0256 38.4645 26.7874 38.4722 28.0597C38.4722 28.4332 38.5255 28.6541 38.6779 28.9588C38.998 29.6218 39.5922 30.018 41.4589 30.8256C44.895 32.3036 46.3654 33.2788 47.2799 34.6656C48.3008 36.2122 48.5294 38.6809 47.836 40.5171C47.0742 42.5132 45.1847 43.8694 42.5254 44.3188C41.7027 44.4636 39.7523 44.4407 38.8684 44.2807C36.9409 43.938 35.1122 42.9855 33.9846 41.736C33.5427 41.2485 32.6817 39.9759 32.7351 39.8846C32.758 39.8541 32.956 39.7322 33.1769 39.6026C33.3902 39.4807 34.198 39.0159 34.9598 38.5742L36.3389 37.7741L36.6284 38.2009C37.0322 38.8177 37.9159 39.6636 38.4494 39.9456C39.9807 40.7531 42.0837 40.6389 43.1198 39.7093C43.5617 39.3056 43.7445 38.8866 43.7445 38.2693C43.7445 37.7132 43.6759 37.4694 43.3864 37.0504C43.0133 36.5169 42.2513 36.0675 40.0874 35.1304C37.6112 34.0635 36.5445 33.4009 35.5694 32.3494C35.0055 31.74 34.4721 30.7646 34.2512 29.9494C34.0684 29.2712 34.0225 27.5722 34.1674 26.8866C34.678 24.4941 36.4836 22.8255 39.0893 22.3303C39.9349 22.1704 41.9007 22.2313 42.7313 22.437Z" fill="white"/>
</g>
<defs>
<filter id="filter0_d_6_182" x="0" y="0.291748" width="56" height="56" filterUnits="userSpaceOnUse" color-interpolation-filters="sRGB">
<feFlood flood-opacity="0" result="BackgroundImageFix"/>
<feColorMatrix in="SourceAlpha" type="matrix" values="0 0 0 0 0 0 0 0 0 0 0 0 0 0 0 0 0 0 127 0" result="hardAlpha"/>
<feOffset dy="4"/>
<feGaussianBlur stdDeviation="2"/>
<feComposite in2="hardAlpha" operator="out"/>
<feColorMatrix type="matrix" values="0 0 0 0 0 0 0 0 0 0 0 0 0 0 0 0 0 0 0.25 0"/>
<feBlend mode="normal" in2="BackgroundImageFix" result="effect1_dropShadow_6_182"/>
<feBlend mode="normal" in="SourceGraphic" in2="effect1_dropShadow_6_182" result="shape"/>
</filter>
<clipPath id="clip0_6_182">
<rect width="48" height="48" fill="white" transform="translate(4 0.291748)"/>
</clipPath>
</defs>
</svg>
